<svg width="28" height="28" viewBox="0 0 28 28" fill="none" xmlns="http://www.w3.org/2000/svg">
<path d="M15.4483 21.7937C14.6483 21.7937 13.9999 22.4419 13.9999 23.2419C13.9999 24.0419 14.6483 24.6905 15.4483 24.6905H26.5516C27.3516 24.6905 28 24.0423 28 23.2419C28 22.4421 27.3518 21.7937 26.5516 21.7937H15.4483Z" fill="#FCF8F8"/>
<path d="M0 8.7591C0 9.55911 0.648412 10.2073 1.44842 10.2073H5.31056V14.0696C5.31056 14.8695 5.95877 15.5181 6.75878 15.5181C7.55879 15.5181 8.2072 14.8699 8.2072 14.0696V10.2073H12.5521C13.3521 10.2073 14.0003 9.55911 14.0003 8.7591C14.0003 7.95909 13.3521 7.31067 12.5521 7.31067H8.20701V2.48306C8.20701 1.68305 7.55859 1.03484 6.75858 1.03484C5.95857 1.03484 5.31036 1.68305 5.31036 2.48306V7.31067H1.44823C0.648412 7.31087 0 7.95928 0 8.7591Z" fill="#FCF8F8"/>
<path d="M26.045 3.42061C25.4795 2.85483 24.5625 2.85483 23.9968 3.42061L2.92557 24.4926C2.3602 25.0582 2.3602 25.9751 2.92557 26.5405C3.20797 26.8237 3.57914 26.9652 3.94952 26.9652C4.3197 26.9652 4.69107 26.8237 4.97386 26.5405L26.045 5.46929C26.6108 4.90391 26.6108 3.98599 26.045 3.42061Z" fill="#FCF8F8"/>
</svg>
